Coordinates
version=1
nRows=13
nColumns=40
inDegrees=yes

Units are S.I. units (second, meters, Newtons, ...)
Angles are in degrees.

endheader
time	pelvis_tilt	pelvis_list	pelvis_rotation	pelvis_tx	pelvis_ty	pelvis_tz	hip_flexion_r	hip_adduction_r	hip_rotation_r	knee_angle_r	knee_angle_r_beta	ankle_angle_r	subtalar_angle_r	mtp_angle_r	hip_flexion_l	hip_adduction_l	hip_rotation_l	knee_angle_l	knee_angle_l_beta	ankle_angle_l	subtalar_angle_l	mtp_angle_l	lumbar_extension	lumbar_bending	lumbar_rotation	arm_flex_r	arm_add_r	arm_rot_r	elbow_flex_r	pro_sup_r	wrist_flex_r	wrist_dev_r	arm_flex_l	arm_add_l	arm_rot_l	elbow_flex_l	pro_sup_l	wrist_flex_l	wrist_dev_l
     10.50000000	      6.29379237	     23.45623912	     77.53641529	      0.57255006	      0.97370223	     -1.23416450	      5.16785940	      8.12595302	      5.17392261	     31.71415407	      0.55351641	      8.90434127	      0.00000000	      0.00000000	     -8.65120054	     -8.99564253	    -15.68250189	     70.76313798	      1.23504975	      4.93795683	      0.00000000	      0.00000000	    -39.55736993	      4.01539756	      6.21990216	      5.29398749	    -15.24234750	      2.55295081	    145.45246684	     88.09325185	      0.00000000	      0.00000000	     -2.23605781	     -6.78727125	     -0.92488265	    139.69569560	     86.09050370	      0.00000000	      0.00000000
     10.51000000	      5.98830337	     24.03822311	     77.49781844	      0.57280716	      0.97339289	     -1.23314867	      4.77090639	      7.57975697	      5.22677000	     33.34777290	      0.58202844	     10.38941796	      0.00000000	      0.00000000	     -7.45847303	     -9.13150612	    -15.27518781	     72.01339130	      1.25687078	      6.50133879	      0.00000000	      0.00000000	    -40.60139274	      3.21690800	      6.81600476	      5.59140192	    -15.32875807	      2.51703153	    145.16133185	     88.08314604	      0.00000000	      0.00000000	     -2.31780892	     -5.52141205	     -1.11991009	    139.19603779	     85.99069679	      0.00000000	      0.00000000
     10.52000000	      5.49371801	     24.31895306	     77.71876478	      0.57318267	      0.97395496	     -1.23229982	      4.30502300	      6.86500154	      5.01493789	     34.28176434	      0.59832966	     11.63973897	      0.00000000	      0.00000000	     -5.93119148	     -9.09393908	    -14.65779552	     72.71914730	      1.26918855	      7.69191506	      0.00000000	      0.00000000	    -41.28447729	      2.41945641	      7.08108716	      5.57606896	    -15.12458122	      2.62906456	    144.92497182	     88.09924357	      0.00000000	      0.00000000	     -2.59432538	     -4.54069191	     -1.31381539	    138.93390650	     85.97399764	      0.00000000	      0.00000000
     10.53000000	      4.91996175	     24.40789878	     78.27913631	      0.57324369	      0.97521121	     -1.23172089	      3.73950732	      6.09216994	      4.60533614	     34.75466062	      0.60658326	     12.66774968	      0.00000000	      0.00000000	     -4.20047258	     -8.98487796	    -13.80075911	     72.92592224	      1.27279745	      8.48484863	      0.00000000	      0.00000000	    -41.73779955	      1.78093859	      6.98338486	      5.38824238	    -14.64402265	      2.81105048	    144.80146768	     88.13423176	      0.00000000	      0.00000000	     -2.93083559	     -3.86637146	     -1.35374346	    138.98792234	     85.99896704	      0.00000000	      0.00000000
     10.54000000	      4.10342571	     24.07645483	     79.30982337	      0.57292788	      0.97640916	     -1.23077864	      3.68919964	      5.15154045	      3.79645929	     35.29232522	      0.61596728	     13.55082660	      0.00000000	      0.00000000	     -1.86662893	     -8.72672499	    -12.61191007	     72.94859463	      1.27319316	      9.45140976	      0.00000000	      0.00000000	    -41.75841365	      1.19268552	      6.38040056	      5.20400364	    -13.96434420	      3.08768870	    144.70032058	     88.19456599	      0.00000000	      0.00000000	     -3.21483223	     -3.53853130	     -1.31389839	    139.30758079	     86.20457971	      0.00000000	      0.00000000
     10.55000000	      3.78013113	     24.00770285	     79.69866523	      0.57351710	      0.97893184	     -1.23000630	      2.93189768	      4.83148198	      3.83546289	     35.26690390	      0.61552359	     14.08431121	      0.00000000	      0.00000000	     -0.40687364	     -8.97733017	    -12.18432618	     72.29648738	      1.26181174	     10.36080132	      0.00000000	      0.00000000	    -42.11971856	      0.64435577	      6.42315039	      4.76158045	    -13.35493652	      3.35033756	    144.88714233	     88.09461438	      0.00000000	      0.00000000	     -3.49691227	     -3.35774069	     -0.95266626	    139.76175106	     86.10577334	      0.00000000	      0.00000000
     10.56000000	      3.40759132	     23.92249862	     80.56328014	      0.57275325	      0.98191784	     -1.22921804	      2.07068111	      4.41587355	      3.40147958	     35.05751018	      0.61186898	     15.15982449	      0.00000000	      0.00000000	      1.03034749	     -8.93226910	    -11.32537497	     71.16265203	      1.24202258	     11.84347056	      0.00000000	      0.00000000	    -42.39981708	      0.42315163	      6.08267972	      4.41646920	    -12.93810094	      3.47091655	    145.04055988	     88.18217093	      0.00000000	      0.00000000	     -3.55035873	     -3.38472303	     -0.48223384	    139.99792064	     86.16652209	      0.00000000	      0.00000000
     10.57000000	      3.03766815	     23.80844860	     81.24497322	      0.57184255	      0.98564529	     -1.22826558	      1.04043130	      4.07176147	      3.33466022	     34.39859841	      0.60036880	     15.46322000	      0.00000000	      0.00000000	      2.14701766	     -8.75620846	    -10.75421512	     69.39162265	      1.21111229	     12.55712813	      0.00000000	      0.00000000	    -42.64560000	      0.15493149	      5.84082455	      4.07385719	    -12.56458020	      3.70392080	    145.19324022	     88.20016120	      0.00000000	      0.00000000	     -3.60390035	     -3.44079534	      0.03961499	    140.19522591	     86.18378541	      0.00000000	      0.00000000
     10.58000000	      2.71550967	     23.46567331	     81.53400420	      0.57095233	      0.98933234	     -1.22742469	      0.23159120	      3.83754352	      3.70583480	     33.65920425	      0.58746394	     15.73593097	      0.00000000	      0.00000000	      3.11387019	     -8.48024979	    -10.51072521	     67.08594053	      1.17087054	     13.76122460	      0.00000000	      0.00000000	    -42.50947238	     -0.20223731	      5.88084546	      3.78521176	    -12.34229225	      3.88206138	    145.24507618	     88.16216733	      0.00000000	      0.00000000	     -3.68731567	     -3.43835260	      0.55514256	    140.18845108	     86.06151249	      0.00000000	      0.00000000
     10.59000000	      2.53852979	     22.73674343	     81.73527505	      0.56995264	      0.99275604	     -1.22649228	     -0.16455411	      3.83180985	      4.22881036	     32.88544697	      0.57395933	     15.76956949	      0.00000000	      0.00000000	      4.38884313	     -8.40570046	    -10.41699620	     64.52501976	      1.12617404	     14.41400840	      0.00000000	      0.00000000	    -41.92152107	     -0.38696279	      5.94445143	      3.58429621	    -12.16248081	      4.06613748	    145.16209934	     88.03873641	      0.00000000	      0.00000000	     -3.87511381	     -3.43988727	      0.91069389	    140.12155839	     85.87377636	      0.00000000	      0.00000000
     10.60000000	      2.03927195	     23.31119426	     81.46740455	      0.56922083	      0.99909839	     -1.22594491	     -2.15026782	      3.14805947	      5.08031377	     31.76895356	      0.55447284	     15.59689908	      0.00000000	      0.00000000	      3.44190741	     -7.75828358	    -11.32194609	     60.73626859	      1.06004786	     15.09054683	      0.00000000	      0.00000000	    -42.55695049	     -1.29682326	      6.17333511	      3.40678433	    -12.04939298	      3.93831015	    145.17271107	     88.13416181	      0.00000000	      0.00000000	     -3.82799863	     -3.50209850	      1.23049783	    139.98122037	     85.76958226	      0.00000000	      0.00000000
     10.61000000	      1.24166919	     23.56351633	     81.53163011	      0.56771737	      1.00494223	     -1.22531962	     -3.61923146	      2.08479968	      5.35277182	     30.82058179	      0.53792063	     15.36812671	      0.00000000	      0.00000000	      2.82016875	     -6.67385631	    -11.89499542	     56.67282955	      0.98912747	     15.54852087	      0.00000000	      0.00000000	    -42.80913127	     -2.20437334	      5.97392626	      3.22008124	    -11.94917310	      3.81434538	    145.12466769	     88.13867320	      0.00000000	      0.00000000	     -3.86353889	     -3.60638068	      1.34855280	    139.90235340	     85.68175813	      0.00000000	      0.00000000
     10.62000000	      0.77194488	     24.03773958	     81.44849518	      0.56635333	      1.01108912	     -1.22534802	     -5.53184618	      1.28454234	      5.49918560	     29.57780630	      0.51623011	     14.93416438	      0.00000000	      0.00000000	      1.48921451	     -5.77508426	    -12.53265713	     51.98252540	      0.90726622	     15.63557612	      0.00000000	      0.00000000	    -43.20200448	     -2.86873524	      5.89297052	      2.97127995	    -11.87217624	      3.58942469	    145.13051855	     88.14431960	      0.00000000	      0.00000000	     -4.05748323	     -3.68928781	      1.30748688	    139.92490175	     85.66095838	      0.00000000	      0.00000000
